HIERARCHY
ROOT SpineBase
{
  OFFSET 0.000000 0.000000 0.000000
  CHANNELS 6 Xposition Yposition Zposition Zrotation Xrotation Yrotation
  JOINT SpineMid
  {
    OFFSET 0.000000 32.675187 -0.000000
    CHANNELS 3 Zrotation Xrotation Yrotation
    JOINT SpineShoulder
    {
      OFFSET -0.023619 24.289932 -0.869024
      CHANNELS 3 Zrotation Xrotation Yrotation
      JOINT Neck
      {
        OFFSET 0.006912 8.048427 -0.637473
        CHANNELS 3 Zrotation Xrotation Yrotation
        JOINT Head
        {
          OFFSET 4.308752 12.365386 5.498382
          CHANNELS 3 Zrotation Xrotation Yrotation
          End Site
          {
            OFFSET 0 0 0
          }
        }
      }
      JOINT ShoulderLeft
      {
        OFFSET -10.711317 -2.460948 -11.393304
        CHANNELS 3 Zrotation Xrotation Yrotation
        JOINT ElbowLeft
        {
          OFFSET -7.370542 -21.607472 -9.245993
          CHANNELS 3 Zrotation Xrotation Yrotation
          JOINT WristLeft
          {
            OFFSET 3.169067 -21.747315 -10.897370
            CHANNELS 3 Zrotation Xrotation Yrotation
            JOINT HandLeft
            {
              OFFSET -0.171199 -8.914079 -1.571503
              CHANNELS 3 Zrotation Xrotation Yrotation
              JOINT HandTipLeft
              {
                OFFSET 2.013728 -7.245281 -1.710983
                CHANNELS 3 Zrotation Xrotation Yrotation
                End Site
                {
                  OFFSET 0 0 0
                }
              }
              JOINT ThumbLeft
              {
                OFFSET -2.672004 -2.266513 -1.257876
                CHANNELS 3 Zrotation Xrotation Yrotation
                End Site
                {
                  OFFSET 0 0 0
                }
              }
            }
          }
        }
      }
      JOINT ShoulderRight
      {
        OFFSET 11.118942 -2.440952 10.463854
        CHANNELS 3 Zrotation Xrotation Yrotation
        JOINT ElbowRight
        {
          OFFSET 0.448367 -25.754244 3.177369
          CHANNELS 3 Zrotation Xrotation Yrotation
          JOINT WristRight
          {
            OFFSET 2.522277 -25.635771 3.033632
            CHANNELS 3 Zrotation Xrotation Yrotation
            JOINT HandRight
            {
              OFFSET 0.000093 -9.137040 0.955988
              CHANNELS 3 Zrotation Xrotation Yrotation
              JOINT HandTipRight
              {
                OFFSET 2.053154 -6.029142 -0.944685
                CHANNELS 3 Zrotation Xrotation Yrotation
                End Site
                {
                  OFFSET 0 0 0
                }
              }
              JOINT ThumbRight
              {
                OFFSET 4.229673 0.051097 -7.633473
                CHANNELS 3 Zrotation Xrotation Yrotation
                End Site
                {
                  OFFSET 0 0 0
                }
              }
            }
          }
        }
      }
    }
  }
  JOINT HipLeft
  {
    OFFSET -4.696461 1.729092 -8.235591
    CHANNELS 3 Zrotation Xrotation Yrotation
    JOINT KneeLeft
    {
      OFFSET -11.815174 -34.090035 -4.110870
      CHANNELS 3 Zrotation Xrotation Yrotation
      JOINT AnkleLeft
      {
        OFFSET -7.149363 -38.001522 4.451913
        CHANNELS 3 Zrotation Xrotation Yrotation
        JOINT FootLeft
        {
          OFFSET 1.555192 -7.042427 -7.120587
          CHANNELS 3 Zrotation Xrotation Yrotation
          End Site
          {
            OFFSET 0 0 0
          }
        }
      }
    }
  }
  JOINT HipRight
  {
    OFFSET 5.343969 0.197957 1.202124
    CHANNELS 3 Zrotation Xrotation Yrotation
    JOINT KneeRight
    {
      OFFSET -3.915598 -37.689298 2.120628
      CHANNELS 3 Zrotation Xrotation Yrotation
      JOINT AnkleRight
      {
        OFFSET -7.296464 -37.267722 10.581977
        CHANNELS 3 Zrotation Xrotation Yrotation
        JOINT FootRight
        {
          OFFSET 2.271592 -7.760974 -4.028376
          CHANNELS 3 Zrotation Xrotation Yrotation
          End Site
          {
            OFFSET 0 0 0
          }
        }
      }
    }
  }
}
MOTION
Frames: 10
Frame Time: 0.033333
-32.050072 82.520037 341.841412 0.000000 -0.000000 -43.227652 -0.000000 0.000000 43.227652 -0.000000 0.000000 0.000000 -0.000000 0.000000 0.000000 0.000000 0.000000 0.000000 -0.000000 0.000000 0.000000 -0.000000 0.000000 0.000000 -0.000000 0.000000 0.000000 -0.000000 0.000000 0.000000 0.000000 0.000000 0.000000 0.000000 0.000000 0.000000 -0.000000 0.000000 0.000000 -0.000000 0.000000 0.000000 -0.000000 0.000000 0.000000 -0.000000 0.000000 0.000000 0.000000 0.000000 0.000000 0.000000 0.000000 0.000000 -0.000000 0.000000 43.227652 -0.000000 0.000000 0.000000 -0.000000 0.000000 0.000000 0.000000 0.000000 0.000000 -0.000000 0.000000 43.227652 -0.000000 0.000000 0.000000 -0.000000 0.000000 0.000000 0.000000 0.000000 0.000000
-32.003144 82.471646 341.508354 0.046550 0.071999 -42.535208 0.014373 -0.084522 42.535189 -0.000000 0.000000 0.000000 -0.000000 0.000000 0.000000 0.000000 0.000000 0.000000 1.235754 -2.217606 0.254700 -3.437135 -1.542954 0.368625 2.770092 -1.746466 -0.644342 -4.641978 2.479084 0.433471 0.000000 0.000000 0.000000 0.000000 0.000000 0.000000 -0.000000 0.000000 0.000000 -0.000000 0.000000 0.000000 1.373146 -1.060902 0.156227 4.776776 3.165737 -0.590584 0.000000 0.000000 0.000000 0.000000 0.000000 0.000000 0.014373 -0.084522 42.535189 -0.000000 0.000000 0.000000 -0.000000 0.000000 0.000000 0.000000 0.000000 0.000000 0.014373 -0.084522 42.535189 -0.000000 0.000000 0.000000 1.329320 0.319642 -0.597274 0.000000 0.000000 0.000000
-31.960070 82.432193 341.220452 0.069178 0.141586 -41.860224 0.042961 -0.151614 41.860196 -0.000000 0.000000 0.000000 -0.000000 0.000000 0.000000 0.000000 0.000000 0.000000 2.222592 -4.125600 0.548863 -6.502236 -3.179457 0.758890 5.383330 -3.025960 -1.443913 -8.760504 4.512953 1.313756 0.000000 0.000000 0.000000 0.000000 0.000000 0.000000 -0.000000 0.000000 0.000000 -0.000000 0.000000 0.000000 2.796576 -2.030030 0.341560 8.192511 5.566454 -1.433293 0.000000 0.000000 0.000000 0.000000 0.000000 0.000000 0.042961 -0.151614 41.860196 -0.000000 0.000000 0.000000 -0.000000 0.000000 0.000000 0.000000 0.000000 0.000000 0.131314 -1.492747 41.924627 0.830432 1.056837 -0.070823 2.490185 0.633805 -1.110721 0.000000 0.000000 0.000000
-31.920849 82.401676 340.977706 0.067987 0.208816 -41.201917 0.086397 -0.201896 41.201946 -0.000000 0.000000 0.000000 -0.000000 0.000000 0.000000 0.000000 0.000000 0.000000 2.983075 -5.760067 0.866140 -9.135999 -4.722797 1.118079 7.764128 -3.861850 -2.340967 -12.317619 5.987283 2.397752 0.000000 0.000000 0.000000 0.000000 0.000000 0.000000 -0.000000 0.000000 0.000000 0.091651 -1.293948 -0.115272 4.179493 -1.598673 0.574391 10.082326 7.175352 -2.283286 0.000000 0.000000 0.000000 0.000000 0.000000 0.000000 1.022138 0.168741 41.204869 -0.948179 0.337561 0.000140 -0.000000 0.000000 0.000000 0.000000 0.000000 0.000000 0.284154 -2.107343 41.305979 1.109436 1.561817 -0.115171 3.483319 0.947247 -1.539733 0.000000 0.000000 0.000000
-31.885481 82.380097 340.780116 0.043048 0.273735 -40.559583 0.145289 -0.235956 40.559779 -0.000000 0.000000 0.000000 -0.000000 0.000000 0.000000 0.000000 0.000000 0.000000 3.533877 -7.152246 1.195670 -11.294774 -6.014974 1.414935 9.875382 -4.279474 -3.265700 -15.299905 6.842832 3.464692 0.000000 0.000000 0.000000 0.000000 0.000000 0.000000 -0.000000 0.000000 0.000000 0.158385 -1.919170 -0.167093 5.637299 -1.727131 0.767407 10.373778 8.027590 -2.961135 0.000000 0.000000 0.000000 0.000000 0.000000 0.000000 1.375529 0.253967 40.556707 -2.095052 0.329837 -0.067004 0.185846 -0.086041 0.704003 0.000000 0.000000 0.000000 0.500143 -2.632819 40.708981 1.294737 2.048206 -0.163463 4.310040 1.264098 -1.884054 0.000000 0.000000 0.000000
-31.853967 82.367455 340.627682 -0.005599 0.336390 -39.932595 0.220218 -0.254350 39.933100 -0.000000 0.000000 0.000000 -0.000000 0.000000 0.000000 0.000000 0.000000 0.000000 3.886451 -8.328250 1.530565 -12.953029 -6.941477 1.633267 11.717375 -4.271754 -4.152989 -17.712579 7.038744 4.333198 0.000000 0.000000 0.000000 0.000000 0.000000 0.000000 -0.000000 0.000000 0.000000 0.242973 -2.642184 -0.224991 7.127720 -1.637427 0.940841 9.036189 8.163666 -3.361141 0.000000 0.000000 0.000000 0.000000 0.000000 0.000000 1.734072 0.353046 39.920112 -2.569679 0.447574 -0.081326 0.221348 -0.068693 0.888290 0.000000 0.000000 0.000000 0.782322 -3.068933 40.133227 1.385088 2.514015 -0.214217 4.971910 1.587827 -2.143568 0.000000 0.000000 0.000000
-31.834636 82.365268 340.521062 -0.081949 0.395350 -39.264146 0.313666 -0.254228 39.265125 -0.494396 0.752643 -0.036577 1.232119 -1.244455 -0.100586 0.000000 0.000000 0.000000 4.502200 -10.412063 2.128046 -14.361010 -7.418602 1.773296 15.096343 -4.169223 -5.592140 -21.145203 6.079987 5.212777 0.000000 0.000000 0.000000 0.000000 0.000000 0.000000 1.495344 -0.731341 0.179780 -0.918580 -3.570847 -0.459160 9.015833 -1.506893 1.128610 2.576445 12.103609 -1.662637 0.000000 0.000000 0.000000 0.000000 0.000000 0.000000 2.172291 0.439813 39.257056 -3.066827 0.737165 -0.127737 0.238882 -0.073324 1.124372 0.000000 0.000000 0.000000 1.246707 -3.392559 39.536804 1.278832 3.014082 -0.275625 5.151100 1.942625 -2.146837 0.000000 0.000000 0.000000
-31.821127 82.376624 340.477959 -0.178633 0.416595 -38.706183 -0.438497 -0.024669 38.687299 -0.183736 0.183527 -0.039178 1.632218 -1.643315 -0.047143 0.000000 0.000000 0.000000 4.507115 -11.459922 2.617016 -14.772143 -7.211627 1.681860 17.014986 -3.329294 -6.453023 -22.699305 4.916982 5.394563 0.000000 0.000000 0.000000 0.000000 0.000000 0.000000 1.932827 -0.685657 0.231909 -0.530854 -4.422118 -0.462307 8.157566 -1.842413 1.098131 0.224235 3.651123 -3.422828 0.000000 0.000000 0.000000 0.000000 0.000000 0.000000 2.545564 0.603762 38.680608 -3.529112 0.926498 -0.146994 0.290931 0.092126 1.332916 0.000000 0.000000 0.000000 1.721326 -3.550656 39.047133 1.076394 3.424016 -0.328311 5.377463 2.058171 -2.235575 0.000000 0.000000 0.000000
-31.809958 82.399229 340.466730 -0.309851 0.474773 -38.157147 -0.533094 -0.035189 38.131143 -0.212363 0.213688 -0.050712 2.011006 -2.284133 0.103081 0.000000 0.000000 0.000000 4.581563 -12.154278 2.935014 -14.933318 -6.912885 1.630185 17.410117 0.089701 -6.844310 -23.156755 1.059141 4.319708 0.000000 0.000000 0.000000 0.000000 0.000000 0.000000 2.231799 -0.687300 0.265686 -0.478787 -5.621516 -0.550602 9.406352 -1.202475 1.162686 -5.494388 -1.801919 -4.289884 0.000000 0.000000 0.000000 0.000000 0.000000 0.000000 2.924828 0.802114 38.089265 -3.976565 0.999068 -0.136600 0.310083 0.159689 1.524827 0.000000 0.000000 0.000000 2.165200 -3.679138 38.553825 0.906225 3.749404 -0.369325 5.506410 2.132908 -2.284027 0.000000 0.000000 0.000000
-31.794339 82.417482 340.467654 -0.470078 0.583551 -37.622193 -0.596410 -0.036859 37.589608 -0.222298 0.227836 -0.060868 2.295491 -2.929388 0.280625 0.000000 0.000000 0.000000 4.566403 -12.456584 3.105436 -14.721122 -6.297513 1.608603 16.707784 5.311536 -6.790306 -20.880306 -3.811739 1.962543 0.000000 0.000000 0.000000 0.000000 0.000000 0.000000 2.440518 -0.643268 0.289721 -0.757515 -7.394596 -0.748496 15.006050 2.962815 0.931785 -11.939748 -4.340779 -4.547278 0.000000 0.000000 0.000000 0.000000 0.000000 0.000000 3.319471 0.858522 37.550520 -4.297327 1.154121 -0.158530 0.443084 0.213303 1.578203 0.000000 0.000000 0.000000 2.618243 -3.839258 38.070495 0.005415 4.273705 -0.610265 6.893606 2.022210 -2.310751 0.000000 0.000000 0.000000
